# Cube OBJ file written by hand

# List of geometric vertices, with (x, y, z, [w]) coordinates, w is optional and defaults
# to 1.0.
v -0.5 -0.5 -0.5
v -0.5 -0.5  0.5
v -0.5  0.5 -0.5
v -0.5  0.5  0.5
v  0.5 -0.5 -0.5
v  0.5 -0.5  0.5
v  0.5  0.5 -0.5
v  0.5  0.5  0.5

# List of texture coordinates, in (u, [v, w]) coordinates, these will vary between 0
# and 1. v, w are optional and default to 0.
vt 0.0  0.0
vt 1.0  0.0
vt 1.0  1.0
vt 0.0  1.0

# List of vertex normals in (x,y,z) form; normals don't have to be unit vectors.
vn -1.0  0.0  0.0
vn  0.0 -0.0  1.0
vn  1.0  0.0  0.0
vn  0.0  0.0 -1.0
vn  0.0  1.0  0.0
vn  0.0 -1.0  0.0

# Faces are defined using lists of vertex, texture and normal indices in the format
# vertex_index/texture_index/normal_index for which each index starts at 1 and increases
# corresponding to the order in which the referenced element was defined.
f 1/1/1 2/2/1 3/4/1
f 2/2/1 4/3/1 3/4/1
f 2/1/2 6/2/2 4/4/2
f 6/2/2 8/3/2 4/4/2
f 6/1/3 5/2/3 8/4/3
f 5/2/3 7/3/3 8/4/3
f 5/1/4 1/2/4 7/4/4
f 1/2/4 3/3/4 7/4/4
f 4/1/5 8/2/5 3/4/5
f 8/2/5 7/3/5 3/4/5
f 1/1/6 5/2/6 2/4/6
f 5/2/6 6/3/6 2/4/6
